<?xml version="1.0" encoding="UTF-8"?>
<svg width="36px" height="36px" viewBox="0 0 36 36" version="1.1" xmlns="http://www.w3.org/2000/svg" xmlns:xlink="http://www.w3.org/1999/xlink">
    <!-- Generator: Sketch 61.2 (89653) - https://sketch.com -->
    <title>Ecnomics</title>
    <desc>Created with Sketch.</desc>
    <g id="Page-1" stroke="none" stroke-width="1" fill="none" fill-rule="evenodd">
        <g id="Artboard" transform="translate(-510.000000, -511.000000)" fill="#FFFFFF" fill-rule="nonzero">
            <g id="Ecnomics" transform="translate(510.000000, 511.000000)">
                <path d="M36,30.6 L36,0.6 C36,0.269 35.731,0 35.4,0 L11.4,0 C11.069,0 10.8,0.269 10.8,0.6 L10.8,4.2 L12,4.2 L12,1.2 L27,1.2 L27,6 C27,6.331 27.269,6.6 27.6,6.6 L32.4,6.6 L32.4,30 L27.6,30 L27.6,31.2 L35.4,31.2 C35.731,31.2 36,30.931 36,30.6 Z M28.2,5.4 L28.2,2.048 L31.552,5.4 L28.2,5.4 Z M34.8,30 L33.6,30 L33.6,6 C33.6,5.84 33.537,5.688 33.424,5.576 L29.048,1.2 L34.8,1.2 L34.8,30 Z M10.8,5.4 L12,5.4 L12,15.6 L10.8,15.6 L10.8,5.4 Z M18.5999452,7.2 C18.596,7.683 18.811,8.142 19.184,8.45 C19.141,8.93 19.314,9.404 19.654,9.746 C19.996,10.086 20.47,10.259 20.951,10.216 C21.26,10.586 21.718,10.8 22.2,10.8 C22.682,10.8 23.14,10.586 23.45,10.216 C23.93,10.259 24.404,10.086 24.746,9.746 C25.086,9.404 25.259,8.93 25.216,8.449 C25.586,8.14 25.8,7.682 25.8,7.2 C25.8,6.718 25.586,6.26 25.216,5.95 C25.259,5.47 25.086,4.996 24.746,4.654 C24.404,4.314 23.93,4.141 23.449,4.184 C23.14,3.814 22.682,3.6 22.2,3.6 C21.718,3.6 21.26,3.814 20.95,4.184 C20.47,4.141 19.996,4.314 19.654,4.654 C19.314,4.996 19.141,5.47 19.184,5.951 C18.811,6.258 18.596,6.717 18.5999452,7.2 Z M20.08,6.804 C20.24,6.747 20.368,6.624 20.433,6.468 C20.498,6.311 20.493,6.134 20.42,5.981 C20.344,5.821 20.377,5.629 20.503,5.503 C20.629,5.377 20.82,5.344 20.981,5.421 C21.134,5.493 21.311,5.498 21.468,5.433 C21.625,5.368 21.747,5.24 21.804,5.08 C21.864,4.912 22.022,4.8 22.2,4.8 C22.378,4.8 22.537,4.912 22.596,5.08 C22.653,5.24 22.776,5.368 22.932,5.433 C23.089,5.498 23.266,5.493 23.419,5.421 C23.579,5.344 23.771,5.377 23.897,5.503 C24.023,5.629 24.056,5.82 23.98,5.981 C23.907,6.134 23.902,6.311 23.967,6.468 C24.032,6.625 24.16,6.747 24.32,6.804 C24.488,6.864 24.6,7.022 24.6,7.2 C24.6,7.378 24.488,7.537 24.32,7.596 C24.16,7.653 24.032,7.776 23.967,7.932 C23.902,8.089 23.907,8.266 23.98,8.419 C24.056,8.579 24.023,8.771 23.897,8.897 C23.771,9.023 23.58,9.056 23.419,8.98 C23.266,8.907 23.089,8.902 22.932,8.967 C22.775,9.032 22.653,9.16 22.596,9.32 C22.536,9.488 22.378,9.6 22.2,9.6 C22.022,9.6 21.863,9.488 21.804,9.32 C21.747,9.16 21.624,9.032 21.468,8.967 C21.311,8.902 21.134,8.907 20.981,8.98 C20.821,9.056 20.629,9.023 20.503,8.897 C20.377,8.771 20.344,8.58 20.42,8.419 C20.493,8.266 20.498,8.089 20.433,7.932 C20.368,7.775 20.24,7.653 20.08,7.596 C19.912,7.536 19.8,7.378 19.8,7.2 C19.8,7.022 19.912,6.863 20.08,6.804 Z M18,12 L20.4,12 L20.4,13.2 L18,13.2 L18,12 Z M21.6,12 L26.4,12 L26.4,13.2 L21.6,13.2 L21.6,12 Z M14.4,14.4 L30,14.4 L30,15.6 L14.4,15.6 L14.4,14.4 Z M30,18 L27.6,18 L27.6,16.8 L30,16.8 L30,18 Z M30,20.4 L27.6,20.4 L27.6,19.2 L30,19.2 L30,20.4 Z M30,22.8 L27.6,22.8 L27.6,21.6 L30,21.6 L30,22.8 Z M27.6,24 L30,24 L30,25.2 L27.6,25.2 L27.6,24 Z M2.4,36 L24,36 C25.325,35.999 26.399,34.925 26.4,33.6 L26.4,19.2 C26.399,17.875 25.325,16.801 24,16.8 L2.4,16.8 C1.075,16.801 0.001,17.875 0,19.2 L0,21 L1.2,21 L1.2,19.2 C1.2,18.538 1.738,18 2.4,18 L2.4,34.8 C1.738,34.8 1.2,34.262 1.2,33.6 L1.2,22.2 L0,22.2 L0,33.6 C0.001,34.925 1.075,35.999 2.4,36 Z M24,18 C24.662,18 25.2,18.538 25.2,19.2 L25.2,33.6 C25.2,34.262 24.662,34.8 24,34.8 L24,18 Z M3.6,18 L22.8,18 L22.8,34.8 L3.6,34.8 L3.6,18 Z M21,21.6 L21,24 L19.8,24 L19.8,23.349 L16.674,27.369 C16.547,27.531 16.346,27.617 16.141,27.597 C15.936,27.577 15.756,27.453 15.663,27.268 L14.909,25.76 L12.489,29.149 C12.366,29.32 12.163,29.415 11.953,29.399 C11.743,29.382 11.557,29.257 11.463,29.069 L10.673,27.489 L8.261,30.384 L7.339,29.616 L10.339,26.016 C10.469,25.86 10.668,25.78 10.869,25.804 C11.07,25.827 11.246,25.95 11.337,26.131 L12.091,27.641 L14.511,24.251 C14.634,24.08 14.837,23.985 15.047,24.001 C15.257,24.018 15.443,24.143 15.537,24.331 L16.311,25.881 L18.859,22.604 L18.145,22.782 L17.855,21.618 L20.255,21.018 C20.434,20.973 20.624,21.013 20.769,21.128 C20.915,21.241 21,21.415 21,21.6 L21,21.6 Z M7.8,31.8 L9,31.8 L9,33 L7.8,33 L7.8,31.8 Z M5.4,31.8 L6.6,31.8 L6.6,33 L5.4,33 L5.4,31.8 Z M10.2,31.8 L11.4,31.8 L11.4,33 L10.2,33 L10.2,31.8 Z M12.6,31.8 L13.8,31.8 L13.8,33 L12.6,33 L12.6,31.8 Z M15,31.8 L16.2,31.8 L16.2,33 L15,33 L15,31.8 L15,31.8 Z M17.4,31.8 L18.6,31.8 L18.6,33 L17.4,33 L17.4,31.8 Z M19.8,31.8 L21,31.8 L21,33 L19.8,33 L19.8,31.8 L19.8,31.8 Z M5.4,27 L6.6,27 L6.6,28.2 L5.4,28.2 L5.4,27 Z M5.4,29.4 L6.6,29.4 L6.6,30.6 L5.4,30.6 L5.4,29.4 Z M5.4,24.6 L6.6,24.6 L6.6,25.8 L5.4,25.8 L5.4,24.6 Z M5.4,22.2 L6.6,22.2 L6.6,23.4 L5.4,23.4 L5.4,22.2 Z M5.4,19.8 L6.6,19.8 L6.6,21 L5.4,21 L5.4,19.8 L5.4,19.8 Z" id="Shape"></path>
            </g>
        </g>
    </g>
</svg>