<?xml version="1.0" encoding="UTF-8"?>
<svg width="15px" height="15px" viewBox="0 0 15 15" version="1.1" xmlns="http://www.w3.org/2000/svg" xmlns:xlink="http://www.w3.org/1999/xlink">
    <!-- Generator: Sketch 53 (72520) - https://sketchapp.com -->
    <title>pencilScreen</title>
    <desc>Created with Sketch.</desc>
    <g id="Page-1" stroke="none" stroke-width="1" fill="none" fill-rule="evenodd">
        <g id="A-user-2-A" transform="translate(-31.000000, -70.000000)" fill="#000000" fill-rule="nonzero">
            <g id="pencil" transform="translate(31.000000, 70.000000)">
                <path d="M8.96785249,4.12548807 C8.90681128,4.06444685 8.82406725,4.03015184 8.73777657,4.03015184 C8.6514859,4.03015184 8.56874187,4.06444685 8.50770065,4.12548807 L4.26995662,8.36319957 C4.23777657,8.39537961 4.2126898,8.43400217 4.19635575,8.47646421 L3.04597614,11.4674837 C2.99983731,11.5874837 3.02866594,11.7234273 3.11957701,11.8143709 C3.18175705,11.8765184 3.26495662,11.9096746 3.349718,11.9096746 C3.38892625,11.9096746 3.42849241,11.9025813 3.46646421,11.8879718 L6.45748373,10.7375922 C6.49997831,10.7212581 6.53856833,10.6962039 6.57074837,10.6639913 L10.8084599,6.42627983 C10.9355206,6.29921909 10.9355206,6.09322126 10.8084599,5.96612798 L8.96785249,4.12548807 Z M6.15943601,10.1550325 L3.91617137,11.0178416 L4.77894794,8.77457701 L8.73774403,4.81574837 L10.1182321,6.19623644 L6.15943601,10.1550325 Z" id="Shape"></path>
                <path d="M12.2426356,3.71899132 L11.2149566,2.6913449 C11.0449132,2.52126898 10.8188395,2.42765727 10.5784165,2.42765727 C10.3379935,2.42765727 10.1118872,2.52130152 9.94187636,2.6913449 L9.19796095,3.4352603 C9.13695228,3.49630152 9.10265727,3.57904555 9.10265727,3.66533623 C9.10265727,3.7516269 9.13695228,3.83440347 9.19796095,3.89541215 L11.0386009,5.73601952 C11.1021475,5.79956616 11.1854121,5.83132321 11.2686768,5.83132321 C11.3519414,5.83132321 11.4352061,5.79956616 11.4987527,5.73601952 L12.2426356,4.99213666 C12.5936226,4.64114967 12.5936226,4.07001085 12.2426356,3.71899132 L12.2426356,3.71899132 Z M11.7824512,4.53195228 L11.2686443,5.04579176 L9.88815618,3.66530369 L10.4019957,3.15146421 C10.4491106,3.10434924 10.5117462,3.07838395 10.5783839,3.07838395 C10.6450217,3.07838395 10.7076573,3.10434924 10.7547722,3.15146421 L11.7824512,4.17914317 C11.8797397,4.27643167 11.8797397,4.43469631 11.7824512,4.53195228 L11.7824512,4.53195228 Z" id="Shape"></path>
                <path d="M12.787256,2.21180043 C11.3737744,0.798318872 9.49444685,0.0198481562 7.49544469,0.0198481562 C5.49644252,0.0198481562 3.61714751,0.798318872 2.20366594,2.21180043 C0.790151844,3.625282 0.0117136659,5.50460954 0.0117136659,7.50357918 C0.0117136659,9.50254881 0.790151844,11.3819089 2.20366594,12.7953905 C3.61714751,14.208872 5.49647505,14.9873102 7.49547722,14.9873102 C9.49447939,14.9873102 11.3737744,14.208872 12.7872885,12.7953905 C14.2007701,11.3819414 14.9792082,9.50258134 14.9792082,7.50357918 C14.9792082,5.50457701 14.2007701,3.625282 12.787256,2.21180043 Z M7.49544469,14.336551 C3.7277115,14.336551 0.662472885,11.2713124 0.662472885,7.50357918 C0.662472885,3.73587852 3.72774403,0.670607375 7.49544469,0.670607375 C11.2631453,0.670607375 14.3284165,3.73587852 14.3284165,7.50357918 C14.3284165,11.2713124 11.2631453,14.336551 7.49544469,14.336551 Z" id="Shape"></path>
            </g>
        </g>
    </g>
</svg>