<?xml version="1.0" encoding="UTF-8"?>
<svg width="36px" height="36px" viewBox="0 0 36 36" version="1.1" xmlns="http://www.w3.org/2000/svg" xmlns:xlink="http://www.w3.org/1999/xlink">
    <!-- Generator: Sketch 61.2 (89653) - https://sketch.com -->
    <title>Geography</title>
    <desc>Created with Sketch.</desc>
    <g id="Page-1" stroke="none" stroke-width="1" fill="none" fill-rule="evenodd">
        <g id="Artboard" transform="translate(-658.000000, -529.000000)" fill="#FFFFFF" fill-rule="nonzero">
            <g id="Geography" transform="translate(658.000000, 529.000000)">
                <path d="M1.613,10.558 L2.705,11.054 C1.705,13.254 1.199,15.594 1.2,18.01 C1.2,22.496 2.95,26.714 6.123,29.884 C9.295,33.054 13.512,34.8 17.996,34.8 C18.968,34.8 19.943,34.716 20.898,34.55 L21.103,35.733 C20.08,35.91 19.037,36 18,36 C13.19,36 8.672,34.13 5.273,30.733 C1.874,27.336 -3.55314736e-15,22.816 -0.001,18.01 C-0.001,15.422 0.541,12.915 1.612,10.558 L1.613,10.558 Z M24.372,33.55 L24.828,34.66 C24.136,34.944 23.422,35.186 22.704,35.38 L22.392,34.222 C23.062,34.042 23.728,33.815 24.372,33.55 Z M31.993,25.96 C32.231,25.745 32.595,25.752 32.821,25.98 L35.821,28.978 C35.991,29.15 36.043,29.408 35.951,29.632 C35.858,29.857 35.638,30.002 35.396,30.002 L33.225,30.002 L29.898,32.958 C29.273,33.512 28.489,33.787 27.708,33.787 C26.861,33.787 26.017,33.465 25.376,32.827 C25.259,32.711 25.195,32.552 25.199,32.388 C25.203,32.225 25.274,32.068 25.395,31.958 L31.993,25.96 Z M32.377,27.232 L26.742,32.355 C27.495,32.742 28.439,32.648 29.102,32.06 L32.599,28.954 C32.709,28.857 32.85,28.803 32.997,28.803 L33.948,28.803 L32.378,27.232 L32.377,27.232 Z M18.002,4.208 C25.609,4.208 31.798,10.397 31.798,18.004 C31.798,25.612 25.609,31.801 18.002,31.801 C10.395,31.801 4.205,25.612 4.205,18.004 C4.205,10.397 10.395,4.208 18.002,4.208 L18.002,4.208 Z M17.402,5.422 C15.922,5.492 14.508,5.818 13.203,6.357 L13.203,12.006 L14.403,12.006 L14.403,10.806 C14.403,10.564 14.549,10.345 14.773,10.252 C14.997,10.159 15.255,10.21 15.427,10.382 L18.426,13.382 C18.539,13.494 18.602,13.646 18.602,13.805 L18.602,16.805 C18.602,17.135 18.332,17.405 18.002,17.405 L13.802,17.405 L13.802,19.803 L18.002,19.803 C18.3,19.803 18.547,20.021 18.594,20.306 L18.602,20.404 L18.602,28.802 C18.602,29.001 18.502,29.187 18.338,29.298 C18.238,29.366 18.121,29.401 18.002,29.401 C17.927,29.401 17.852,29.388 17.779,29.359 L14.779,28.159 C14.552,28.068 14.403,27.847 14.403,27.602 L14.403,24.924 L12.87,23.902 C12.703,23.79 12.603,23.603 12.603,23.403 L12.603,20.692 L9.829,18.472 C9.715,18.382 9.639,18.252 9.614,18.112 L9.604,18.004 L9.604,15.005 L5.766,15.005 C5.53,15.967 5.40599947,16.971 5.40599947,18.005 C5.404,24.95 11.054,30.6 18,30.6 C24.817,30.6 30.387,25.156 30.591,18.388 L26.871,23.17 C26.757,23.316 26.583,23.402 26.398,23.402 L23.998,23.402 C23.667,23.402 23.398,23.134 23.398,22.802 L23.398,17.052 L21.175,14.828 C20.94,14.594 20.94,14.215 21.175,13.98 L24.175,10.98 C24.287,10.868 24.439,10.805 24.598,10.805 L28.198,10.805 C28.248,10.805 28.298,10.812 28.346,10.824 C27.38,9.436 26.141,8.25 24.708,7.345 L20.224,11.829 C20.111,11.942 19.959,12.005 19.8,12.005 C19.64,12.005 19.488,11.942 19.375,11.829 L17.575,10.029 C17.463,9.917 17.4,9.764 17.4,9.605 L17.402,5.422 Z M17.402,21.004 L13.803,21.004 L13.803,23.082 L15.336,24.104 C15.502,24.215 15.603,24.402 15.603,24.603 L15.603,27.196 L17.403,27.916 L17.403,21.004 L17.402,21.004 Z M14.279,0.394 C23.988,-1.666 33.557,4.559 35.615,14.266 C36.406,18.002 35.972,21.974 34.39,25.451 L33.298,24.954 C34.775,21.709 35.181,18.001 34.441,14.515 C32.521,5.455 23.586,-0.353 14.528,1.567 L14.279,0.394 Z M27.599,12.006 L24.849,12.006 L22.449,14.406 L24.424,16.38 C24.537,16.493 24.6,16.646 24.6,16.805 L24.6,22.203 L26.106,22.203 L29.372,18.004 L28.199,18.004 C27.868,18.004 27.599,17.736 27.599,17.404 L27.599,12.006 L27.599,12.006 Z M12.002,6.93 C9.285,8.407 7.169,10.855 6.124,13.805 L10.203,13.805 C10.534,13.805 10.803,14.075 10.803,14.405 L10.803,17.716 L12.603,19.156 L12.603,16.805 C12.603,16.474 12.871,16.205 13.203,16.205 L17.4,16.205 L17.4,14.054 L15.6,12.254 L15.6,12.606 C15.6,12.936 15.332,13.206 15,13.206 L12.601,13.206 C12.271,13.206 12.001,12.936 12.001,12.606 L12.002,6.93 Z M28.8,11.523 L28.8,16.805 L30.542,16.805 C30.36,14.887 29.747,13.094 28.8,11.523 Z M23.626,6.733 C22.101,5.97 20.4,5.506 18.601,5.422 L18.601,9.358 L19.801,10.558 L23.626,6.733 Z M6.104,3.051 C7.407,1.898 9.394,1.955 10.627,3.183 C10.744,3.298 10.807,3.457 10.8041024,3.621 C10.8,3.785 10.729,3.941 10.608,4.051 L4.009,10.05 C3.895,10.155 3.75,10.206 3.605,10.206 C3.452,10.206 3.298,10.148 3.181,10.031 L0.182,7.031 C0.011,6.86 -0.041,6.601 0.052,6.377 C0.145,6.153 0.364,6.007 0.606,6.007 L2.778,6.007 L6.104,3.051 Z M9.261,3.655 C8.508,3.267 7.565,3.361 6.901,3.949 L3.404,7.056 C3.294,7.154 3.153,7.207 3.006,7.207 L2.054,7.207 L3.625,8.778 L9.261,3.655 Z M13.046,0.725 L13.36,1.883 C12.772,2.043 12.189,2.238 11.625,2.462 L11.182,1.346 C11.787,1.106 12.414,0.896 13.046,0.726 L13.046,0.725 Z" id="Shape"></path>
            </g>
        </g>
    </g>
</svg>