<?xml version="1.0" encoding="UTF-8"?>
<svg width="32px" height="36px" viewBox="0 0 32 36" version="1.1" xmlns="http://www.w3.org/2000/svg" xmlns:xlink="http://www.w3.org/1999/xlink">
    <!-- Generator: Sketch 61.2 (89653) - https://sketch.com -->
    <title>History</title>
    <desc>Created with Sketch.</desc>
    <g id="Page-1" stroke="none" stroke-width="1" fill="none" fill-rule="evenodd">
        <g id="Artboard" transform="translate(-583.000000, -477.000000)" fill="#FFFFFF" fill-rule="nonzero">
            <g id="History" transform="translate(583.000000, 477.000000)">
                <path d="M29.511,26.281 C29.646,26.101 29.667,25.861 29.567,25.661 C29.467,25.461 29.261,25.333 29.037,25.333 L22.459,25.333 C22.176,23.955 20.963,22.965 19.556,22.963 L17.778,22.963 L17.778,21.533 C19.858,21.114 21.786,20.14 23.358,18.715 L24.47,19.826 L25.308,18.988 L24.196,17.876 C24.509,17.531 24.802,17.167 25.072,16.787 L24.107,16.1 C23.874,16.426 23.624,16.739 23.357,17.037 L22.514,16.194 C25.825,12.442 25.648,6.762 22.11,3.224 C18.57,-0.316 12.89,-0.492 9.139,2.819 L8.296,1.976 C8.594,1.709 8.906,1.459 9.233,1.226 L8.545,0.261 C8.165,0.531 7.802,0.824 7.457,1.137 L6.345,0.025 L5.507,0.863 L6.618,1.975 C2.41,6.621 2.546,13.825 7.027,18.306 C8.958,20.241 11.501,21.446 14.222,21.713 L14.222,22.963 L12.444,22.963 C10.809,22.965 9.484,24.29 9.481,25.926 C9.481,26.253 9.747,26.519 10.074,26.519 L12.216,26.519 C11.738,27.656 11.738,28.937 12.216,30.074 L5.25,30.074 C4.577,28.984 4.577,27.608 5.25,26.519 L8.296,26.519 L8.296,25.333 L1.383,25.333 C1.196,25.333 1.021,25.421 0.909,25.57 C-0.295,27.188 -0.295,29.404 0.909,31.022 C1.021,31.172 1.196,31.259 1.383,31.259 L2.735,31.259 C2.106,32.751 2.313,34.464 3.279,35.763 C3.391,35.913 3.567,36 3.753,36 L31.407,36 C31.632,36 31.837,35.873 31.937,35.672 C32.037,35.472 32.017,35.232 31.881,35.052 C30.991,33.856 30.991,32.218 31.881,31.022 C32.016,30.842 32.038,30.602 31.937,30.402 C31.837,30.201 31.632,30.074 31.407,30.074 L29.35,30.074 C28.622,28.896 28.686,27.393 29.512,26.281 L29.511,26.281 Z M28.018,26.519 C27.859,26.897 27.752,27.296 27.7,27.704 L17.242,27.704 C17.316,27.284 17.47,26.881 17.695,26.519 L28.018,26.519 Z M18.735,34.815 L15.917,34.815 C15.244,33.725 15.244,32.349 15.917,31.259 L18.735,31.259 C18.257,32.396 18.257,33.678 18.735,34.815 Z M7.62,31.259 L14.586,31.259 C14.108,32.396 14.108,33.678 14.586,34.815 L7.62,34.815 C6.946,33.725 6.946,32.349 7.62,31.259 Z M23.703,9.926 C23.703,10.323 23.674,10.719 23.618,11.111 L22.104,11.111 L20.74,10.201 L20.74,8.148 C20.74,8.041 20.71,7.935 20.655,7.843 L18.962,5.021 L18.962,2.431 C21.855,3.806 23.7,6.723 23.702,9.926 L23.703,9.926 Z M17.777,1.976 L17.777,5.186 C17.777,5.293 17.806,5.398 17.861,5.49 L19.555,8.312 L19.555,10.519 C19.555,10.717 19.654,10.902 19.818,11.012 L21.596,12.197 C21.694,12.262 21.808,12.297 21.925,12.297 L23.357,12.297 C22.116,16.463 17.869,18.964 13.624,18.03 C9.378,17.096 6.574,13.043 7.195,8.74 L8.425,8.74 L8.905,10.662 C8.972,10.926 9.209,11.112 9.48,11.112 L11.258,11.112 L11.258,12.889 C11.258,13.006 11.293,13.12 11.358,13.218 L12.443,14.846 L12.443,16.444 C12.443,16.772 12.709,17.037 13.036,17.037 L15.406,17.037 C15.586,17.037 15.756,16.955 15.869,16.815 L18.239,13.852 C18.382,13.674 18.409,13.43 18.311,13.225 C18.212,13.019 18.005,12.889 17.777,12.889 L16.592,12.889 L16.592,10.519 C16.592,10.191 16.326,9.926 15.999,9.926 L12.443,9.926 L12.443,8.92 L13.353,7.556 L15.406,7.556 C15.612,7.556 15.803,7.449 15.91,7.274 C16.018,7.1 16.028,6.882 15.936,6.698 L14.751,4.328 C14.651,4.127 14.446,4 14.221,4 L12.443,4 L12.443,2.177 C14.15,1.524 16.025,1.453 17.777,1.975 L17.777,1.976 Z M16,14.073 L16.545,14.073 L15.123,15.851 L13.63,15.851 L13.63,14.666 C13.63,14.549 13.595,14.434 13.53,14.336 L12.444,12.708 L12.444,11.11 L15.407,11.11 L15.407,13.48 C15.407,13.808 15.673,14.073 16,14.073 L16,14.073 Z M11.26,2.743 L11.26,4.592 C11.26,4.919 11.525,5.184 11.852,5.184 L13.856,5.184 L14.449,6.369 L13.037,6.369 C12.839,6.369 12.654,6.469 12.544,6.633 L11.359,8.411 C11.294,8.508 11.259,8.623 11.259,8.74 L11.259,9.925 L9.944,9.925 L9.464,8.003 C9.398,7.74 9.161,7.555 8.889,7.555 L7.457,7.555 C8.067,5.525 9.427,3.805 11.259,2.742 L11.26,2.743 Z M7.458,2.813 L8.301,3.656 C4.986,7.408 5.161,13.091 8.701,16.631 C12.241,20.171 17.924,20.346 21.676,17.031 L22.519,17.875 C18.336,21.621 11.883,21.485 7.865,17.467 C3.847,13.449 3.711,6.997 7.458,2.813 L7.458,2.813 Z M15.408,21.771 C15.803,21.771 16.198,21.751 16.593,21.712 L16.593,22.962 L15.407,22.962 L15.407,21.772 L15.408,21.771 Z M12.444,24.147 L19.556,24.147 C20.309,24.148 20.98,24.623 21.232,25.332 L10.768,25.332 C11.02,24.622 11.691,24.148 12.444,24.147 Z M13.547,26.517 L16.364,26.517 C15.887,27.655 15.887,28.936 16.364,30.073 L13.547,30.073 C12.873,28.983 12.873,27.607 13.547,26.518 L13.547,26.517 Z M1.695,26.517 L3.92,26.517 C3.442,27.655 3.442,28.936 3.92,30.073 L1.695,30.073 C1.021,28.983 1.021,27.607 1.695,26.518 L1.695,26.517 Z M4.065,31.258 L6.291,31.258 C5.813,32.395 5.813,33.677 6.291,34.814 L4.065,34.814 C3.391,33.724 3.391,32.348 4.065,31.258 Z M20.065,34.814 C19.84,34.451 19.686,34.049 19.613,33.629 L30.07,33.629 C30.122,34.036 30.23,34.435 30.389,34.814 L20.065,34.814 L20.065,34.814 Z M30.07,32.444 L19.613,32.444 C19.686,32.024 19.84,31.621 20.065,31.258 L30.39,31.258 C30.23,31.638 30.123,32.036 30.071,32.443 L30.07,32.444 Z M17.695,30.074 C17.47,29.711 17.316,29.308 17.242,28.888 L27.7,28.888 C27.752,29.296 27.86,29.694 28.018,30.073 L17.695,30.073 L17.695,30.074 Z" id="Shape"></path>
            </g>
        </g>
    </g>
</svg>