<?xml version="1.0" encoding="UTF-8"?>
<svg width="36px" height="36px" viewBox="0 0 36 36" version="1.1" xmlns="http://www.w3.org/2000/svg" xmlns:xlink="http://www.w3.org/1999/xlink">
    <!-- Generator: Sketch 61.2 (89653) - https://sketch.com -->
    <title>Math</title>
    <desc>Created with Sketch.</desc>
    <g id="Page-1" stroke="none" stroke-width="1" fill="none" fill-rule="evenodd">
        <g id="Artboard" transform="translate(-713.000000, -429.000000)" fill="#FFFFFF" fill-rule="nonzero">
            <g id="Math" transform="translate(713.000000, 429.000000)">
                <path d="M0,0 L36,36 L0,36 L0,0 Z M2.107,5.087 L2.107,25.874 L10.127,25.874 L10.127,33.893 L30.913,33.893 L2.107,5.087 Z M8.02,27.98 L2.108,27.98 L2.108,33.892 L8.02,33.892 L8.02,27.98 Z M10.567,0.087 L12.057,1.577 L11.196,2.437 L33.628,24.87 L34.489,24.01 L35.979,25.499 L32.767,28.711 L31.277,27.221 L32.138,26.36 L9.706,3.927 L8.845,4.788 L7.355,3.298 L10.567,0.087 L10.567,0.087 Z" id="Shape"></path>
            </g>
        </g>
    </g>
</svg>