<?xml version="1.0" encoding="UTF-8"?>
<svg width="36px" height="36px" viewBox="0 0 36 36" version="1.1" xmlns="http://www.w3.org/2000/svg" xmlns:xlink="http://www.w3.org/1999/xlink">
    <!-- Generator: Sketch 61.2 (89653) - https://sketch.com -->
    <title>Science</title>
    <desc>Created with Sketch.</desc>
    <g id="Page-1" stroke="none" stroke-width="1" fill="none" fill-rule="evenodd">
        <g id="Artboard" transform="translate(-641.000000, -411.000000)" fill="#FFFFFF" fill-rule="nonzero">
            <g id="Science" transform="translate(641.000000, 411.000000)">
                <path d="M20.25,0 C20.664,0 21,0.336 21,0.75 L21,10.863 C23.74,11.528 26.184,13.081 27.949,15.281 L26.779,16.22 C25.104,14.131 22.739,12.708 20.109,12.205 C19.756,12.138 19.5,11.828 19.5,11.468 L19.5,1.5 L15.75,1.5 L15.75,11.643 C15.75,11.985 15.519,12.284 15.188,12.37 C14.202,12.624 13.256,13.01 12.375,13.52 L12.75,13.312 L12.75,18.525 L19.5,28.96 L19.5,20.25 C19.5,18.653 20.75,17.346 22.324,17.255 L22.5,17.25 L34.19,17.25 C35.19,17.25 36,18.062 36,19.062 C36,19.542 35.81,20.002 35.47,20.341 L33.75,22.061 L33.75,32.251 C33.748,34.321 32.07,35.998 30,36.001 L23.25,36.001 C22.04,35.999 20.963,35.424 20.277,34.533 C20.026,34.873 19.71,35.173 19.333,35.416 C18.743,35.797 18.057,36 17.355,36 L3.697,36 C1.655,36 0,34.345 0,32.303 C0,31.643 0.176,30.996 0.51,30.428 L7.5,18.546 L7.5,9 C7.5,8.586 7.836,8.25 8.25,8.25 L12,8.25 C12.414,8.25 12.75,8.586 12.75,9 L12.75,11.644 C13.237,11.424 13.738,11.234 14.25,11.076 L14.25,0.75 C14.25,0.336 14.586,0 15,0 L20.25,0 Z M11.25,9.75 L9,9.75 L9,18.75 C9,18.884 8.964,19.015 8.897,19.13 L1.8,31.188 C1.184,32.234 1.533,33.581 2.58,34.197 C2.918,34.397 3.304,34.501 3.697,34.5000071 L17.355,34.5000071 C18.54,34.5000071 19.5,33.54 19.4990008,32.355 C19.4990008,31.941 19.379,31.537 19.155,31.19 L11.37,19.157 C11.292,19.037 11.25,18.895 11.25,18.75 L11.25,9.75 Z M34.19,18.75 L22.5,18.75 C21.672,18.75 21,19.422 21,20.25 L21,32.25 C21,33.493 22.008,34.5 23.25,34.5 L30,34.5 C31.243,34.5 32.25,33.493 32.25,32.25 L32.25,21.75 C32.25,21.551 32.33,21.36 32.47,21.22 L34.41,19.28 C34.53,19.16 34.531,18.963 34.41,18.841 C34.352,18.783 34.272,18.751 34.19,18.751 L34.19,18.75 Z M9.51,21.045 L10.804,21.805 L5.1,31.5 L9,31.5 L9,33 L3.79,33 C3.376,33 3.04,32.665 3.039,32.251 C3.039,32.117 3.075,31.986 3.143,31.871 L9.511,21.045 L9.51,21.045 Z M30.75,21.75 L30.75,32.25 C30.75,32.664 30.415,33 30,33 L27,33 L27,31.5 L29.25,31.5 L29.25,21.75 L30.75,21.75 Z M24,30.75 L24,32.25 L22.5,32.25 L22.5,30.75 L24,30.75 Z M16.5,30.75 L16.5,32.25 L15,32.25 L15,30.75 L16.5,30.75 Z M24.75,27.75 L24.75,29.25 L22.5,29.25 L22.5,27.75 L24.75,27.75 Z M14.25,27.75 L14.25,29.25 L12.75,29.25 L12.75,27.75 L14.25,27.75 Z M24,24.75 L24,26.25 L22.5,26.25 L22.5,24.75 L24,24.75 Z M24.75,21.75 L24.75,23.25 L22.5,23.25 L22.5,21.75 L24.75,21.75 Z M18,20.25 L18,21.75 L16.5,21.75 L16.5,20.25 L18,20.25 Z M5.25,17.25 L5.25,18.75 L3.75,18.75 L3.75,17.25 L5.25,17.25 Z M16.5,17.25 L16.5,18.75 L15,18.75 L15,17.25 L16.5,17.25 Z M31.875,10.5 C33.325,10.5 34.5,11.675 34.5,13.125 C34.5,14.575 33.325,15.75 31.875,15.75 C30.425,15.75 29.25,14.575 29.25,13.125 C29.25,11.675 30.425,10.5 31.875,10.5 Z M15.75,14.25 L15.75,15.75 L14.25,15.75 L14.25,14.25 L15.75,14.25 Z M3,13.5 L3,15 L1.5,15 L1.5,13.5 L3,13.5 Z M31.875,12 C31.254,12 30.75,12.504 30.75,13.125 C30.75,13.747 31.254,14.25 31.875,14.25 C32.497,14.25 33,13.747 33,13.125 C33,12.504 32.497,12 31.875,12 Z M2.625,6 C4.075,6 5.25,7.175 5.25,8.625 C5.25,10.075 4.075,11.25 2.625,11.25 C1.175,11.25 0,10.075 0,8.625 C0,7.175 1.175,6 2.625,6 Z M29.25,5.25 C30.493,5.25 31.5,6.257 31.5,7.5 C31.5,8.743 30.493,9.75 29.25,9.75 C28.008,9.75 27,8.743 27,7.5 C27,6.257 28.008,5.25 29.25,5.25 Z M2.625,7.5 C2.004,7.5 1.5,8.004 1.5,8.625 C1.5,9.246 2.004,9.75 2.625,9.75 C3.246,9.75 3.75,9.246 3.75,8.625 C3.75,8.004 3.246,7.5 2.625,7.5 Z M29.25,6.75 C28.836,6.75 28.5,7.086 28.5,7.5 C28.5,7.914 28.836,8.25 29.25,8.25 C29.665,8.25 30,7.914 30,7.5 C30,7.086 29.665,6.75 29.25,6.75 Z M6,0.75 C7.243,0.75 8.25,1.757 8.25,3 C8.25,4.243 7.243,5.25 6,5.25 C4.757,5.25 3.75,4.243 3.75,3 C3.75,1.757 4.757,0.75 6,0.75 Z M6,2.25 C5.586,2.25 5.25,2.586 5.25,3 C5.25,3.414 5.586,3.75 6,3.75 C6.414,3.75 6.75,3.414 6.75,3 C6.75,2.586 6.414,2.25 6,2.25 Z" id="Shape"></path>
            </g>
        </g>
    </g>
</svg>