<?xml version="1.0" encoding="UTF-8"?>
<svg width="36px" height="36px" viewBox="0 0 36 36" version="1.1" xmlns="http://www.w3.org/2000/svg" xmlns:xlink="http://www.w3.org/1999/xlink">
    <!-- Generator: Sketch 61.2 (89653) - https://sketch.com -->
    <title>English</title>
    <desc>Created with Sketch.</desc>
    <g id="Page-1" stroke="none" stroke-width="1" fill="none" fill-rule="evenodd">
        <g id="Artboard" transform="translate(-532.000000, -371.000000)" fill="#FFFFFF" fill-rule="nonzero">
            <g id="English" transform="translate(532.000000, 371.000000)">
                <path d="M31.55,0 L31.55,2.323 L36,2.323 L34.54,5.226 L36,8.129 L31.55,8.129 L31.55,31.355 L29.796,31.355 C28.83,31.355 28.044,32.136 28.044,33.097 C28.044,34.057 28.83,34.839 29.796,34.839 L31.549,34.839 L31.549,36 L2.921,36 C1.311,36 0,34.698 0,33.097 L0,2.903 C0,1.303 1.31,0 2.921,0 L31.55,0 Z M27.475,31.355 L2.92,31.355 C1.954,31.355 1.167,32.136 1.167,33.097 C1.167,34.057 1.954,34.839 2.92,34.839 L27.474,34.839 C27.103,34.352 26.874,33.753 26.874,33.097 C26.874,32.441 27.103,31.841 27.474,31.355 L27.475,31.355 Z M25.707,32.516 L25.707,33.677 L4.674,33.677 L4.674,32.517 L25.707,32.517 L25.707,32.516 Z M3.505,32.516 L3.505,33.677 L2.337,33.677 L2.337,32.517 L3.505,32.517 L3.505,32.516 Z M4.674,1.161 L2.921,1.161 C1.955,1.161 1.168,1.943 1.168,2.903 L1.168,30.775 C1.657,30.411 2.264,30.194 2.921,30.194 L4.674,30.194 L4.674,27.87 L5.842,27.87 L5.842,30.193 L30.381,30.193 L30.381,1.16 L5.842,1.16 L5.842,26.71 L4.674,26.71 L4.674,1.16 L4.674,1.161 Z M28.628,27.871 L28.628,29.032 L27.46,29.032 L27.46,27.871 L28.628,27.871 L28.628,27.871 Z M26.291,27.871 L26.291,29.032 L7.595,29.032 L7.595,27.871 L26.291,27.871 L26.291,27.871 Z M28.628,25.548 L28.628,26.71 L7.595,26.71 L7.595,25.548 L28.628,25.548 L28.628,25.548 Z M28.628,23.226 L28.628,24.387 L7.595,24.387 L7.595,23.226 L28.628,23.226 L28.628,23.226 Z M29.212,11.613 L29.212,22.065 L7.011,22.065 L7.011,11.613 L29.212,11.613 L29.212,11.613 Z M28.044,12.774 L8.179,12.774 L8.179,20.904 L28.044,20.904 L28.044,12.774 Z M13.285,2.323 L14.723,6.968 L15.775,6.968 L15.775,8.129 L15.082,8.129 L15.748,10.281 L14.632,10.622 L13.86,8.129 L10.678,8.129 L9.906,10.622 L8.789,10.281 L9.456,8.129 L8.764,8.129 L8.764,6.968 L9.815,6.968 L11.253,2.323 L13.285,2.323 L13.285,2.323 Z M19.865,2.323 C21.153,2.323 22.201,3.364 22.201,4.645 C22.201,5.338 21.895,5.961 21.408,6.387 C21.895,6.813 22.201,7.437 22.201,8.129 C22.201,9.409 21.153,10.452 19.864,10.452 L17.527,10.452 L17.527,2.322 L19.865,2.323 Z M27.46,2.323 L27.46,3.483 C25.849,3.483 24.538,4.786 24.538,6.387 C24.538,7.987 25.848,9.29 27.46,9.29 L27.46,10.452 C25.204,10.452 23.37,8.628 23.37,6.387 C23.37,4.146 25.204,2.323 27.46,2.323 L27.46,2.323 Z M19.864,6.968 L18.696,6.968 L18.696,9.29 L19.864,9.29 C20.509,9.29 21.033,8.77 21.033,8.129 C21.033,7.489 20.509,6.968 19.864,6.968 L19.864,6.968 Z M12.422,3.484 L12.117,3.484 L11.037,6.968 L13.5,6.968 L12.422,3.484 L12.422,3.484 Z M34.109,3.484 L31.549,3.484 L31.549,6.968 L34.109,6.968 L33.233,5.226 L34.109,3.484 Z M19.864,3.484 L18.696,3.484 L18.696,5.806 L19.864,5.806 C20.509,5.806 21.033,5.286 21.033,4.646 C21.033,4.005 20.509,3.484 19.864,3.484 Z" id="Shape"></path>
            </g>
        </g>
    </g>
</svg>