<?xml version="1.0" encoding="UTF-8"?>
<svg width="40px" height="36px" viewBox="0 0 40 36" version="1.1" xmlns="http://www.w3.org/2000/svg" xmlns:xlink="http://www.w3.org/1999/xlink">
    <!-- Generator: Sketch 61.2 (89653) - https://sketch.com -->
    <title>Political Science</title>
    <desc>Created with Sketch.</desc>
    <g id="Page-1" stroke="none" stroke-width="1" fill="none" fill-rule="evenodd">
        <g id="Artboard" transform="translate(-751.000000, -508.000000)" fill="#FFFFFF" fill-rule="nonzero">
            <g id="Political-Science" transform="translate(751.000000, 508.000000)">
                <path d="M20.6666667,0.0225 L20.6666667,2.0475 L21.3333333,2.0475 C21.7011111,2.0475 22,2.350125 22,2.7225 L22,5.976 C24.43,7.0785 25.9955556,9.51975 26,12.21525 L26,13.523625 L26.6666667,13.523625 L26.6666667,14.873625 L26,14.873625 L26,17.573625 L28,17.573625 C28.3688889,17.573625 28.6666667,17.875125 28.6666667,18.248625 L28.6666667,20.273625 L31.3333333,20.273625 L31.3333333,18.248625 C31.3333333,17.875125 31.6322222,17.573625 32,17.573625 L34.6666667,17.573625 C35.0355556,17.573625 35.3333333,17.875125 35.3333333,18.248625 L35.3333333,20.273625 L40,20.273625 L40,21.623625 L39.3333333,21.623625 L39.3333333,34.448625 L40,34.448625 L40,35.798625 L0,35.798625 L0,34.448625 L0.666666667,34.448625 L0.666666667,21.623625 L0,21.623625 L0,20.273625 L4.66666667,20.273625 L4.66666667,18.248625 C4.66666667,17.875125 4.96555556,17.573625 5.33333333,17.573625 L8,17.573625 C8.36777778,17.573625 8.66666667,17.875125 8.66666667,18.248625 L8.66666667,20.273625 L11.3333333,20.273625 L11.3333333,18.248625 C11.3333333,17.875125 11.6311111,17.573625 12,17.573625 L14,17.573625 L14,14.873625 L13.3333333,14.873625 L13.3333333,13.523625 L14,13.523625 L14,12.21525 C14.0044444,9.51975 15.57,7.077375 18,5.976 L18,2.7225 C18,2.350125 18.2988889,2.0475 18.6666667,2.0475 L19.3333333,2.0475 L19.3333333,0.0225 L20.6666667,0.0225 L20.6666667,0.0225 Z M38,30.3975 L33.7444444,30.3975 L35.7444444,34.4475 L38,34.4475 L38,30.3975 Z M33.5888889,33.0975 L28.6666667,33.0975 L28.6666667,34.4475 L34.2555556,34.4475 L33.5888889,33.0975 L33.5888889,33.0975 Z M27.3333333,30.3975 L12.6666667,30.3975 L12.6666667,34.4475 L14,34.4475 L14,32.4225 L15.3333333,32.4225 L15.3333333,34.4475 L16.6666667,34.4475 L16.6666667,32.4225 L18,32.4225 L18,34.4475 L19.3333333,34.4475 L19.3333333,32.4225 L20.6666667,32.4225 L20.6666667,34.4475 L22,34.4475 L22,32.4225 L23.3333333,32.4225 L23.3333333,34.4475 L24.6666667,34.4475 L24.6666667,32.4225 L26,32.4225 L26,34.4475 L27.3333333,34.4475 L27.3333333,30.3975 L27.3333333,30.3975 Z M11.3333333,33.0975 L6.41111111,33.0975 L5.74444444,34.4475 L11.3333333,34.4475 L11.3333333,33.0975 Z M6.25555556,30.3975 L2,30.3975 L2,34.4475 L4.25555556,34.4475 L6.25555556,30.3975 L6.25555556,30.3975 Z M11.3333333,30.3975 L7.74444444,30.3975 L7.07777778,31.7475 L11.3333333,31.7475 L11.3333333,30.3975 Z M32.2555556,30.3975 L28.6666667,30.3975 L28.6666667,31.7475 L32.9222222,31.7475 L32.2555556,30.3975 L32.2555556,30.3975 Z M27.3333333,26.3475 L12.6666667,26.3475 L12.6666667,29.0475 L14,29.0475 L14,27.6975 L15.3333333,27.6975 L15.3333333,29.0475 L16.6666667,29.0475 L16.6666667,27.6975 L18,27.6975 L18,29.0475 L19.3333333,29.0475 L19.3333333,27.6975 L20.6666667,27.6975 L20.6666667,29.0475 L22,29.0475 L22,27.6975 L23.3333333,27.6975 L23.3333333,29.0475 L24.6666667,29.0475 L24.6666667,27.6975 L26,27.6975 L26,29.0475 L27.3333333,29.0475 L27.3333333,26.3475 L27.3333333,26.3475 Z M11.3333333,21.6225 L2,21.6225 L2,29.0475 L3.33333333,29.0475 L3.33333333,27.0225 L4.66666667,27.0225 L4.66666667,29.0475 L6,29.0475 L6,27.0225 L7.33333333,27.0225 L7.33333333,29.0475 L8.66666667,29.0475 L8.66666667,27.0225 L10,27.0225 L10,29.0475 L11.3333333,29.0475 L11.3333333,21.6225 Z M38,21.6225 L28.6666667,21.6225 L28.6666667,29.0475 L30,29.0475 L30,27.0225 L31.3333333,27.0225 L31.3333333,29.0475 L32.6666667,29.0475 L32.6666667,27.0225 L34,27.0225 L34,29.0475 L35.3333333,29.0475 L35.3333333,27.0225 L36.6666667,27.0225 L36.6666667,29.0475 L38,29.0475 L38,21.6225 Z M36.6666667,22.9725 L36.6666667,24.9975 L35.3333333,24.9975 L35.3333333,22.9725 L36.6666667,22.9725 Z M34,22.9725 L34,24.9975 L32.6666667,24.9975 L32.6666667,22.9725 L34,22.9725 Z M31.3333333,22.9725 L31.3333333,24.9975 L30,24.9975 L30,22.9725 L31.3333333,22.9725 Z M10,22.9725 L10,24.9975 L8.66666667,24.9975 L8.66666667,22.9725 L10,22.9725 Z M4.66666667,22.9725 L4.66666667,24.9975 L3.33333333,24.9975 L3.33333333,22.9725 L4.66666667,22.9725 Z M7.33333333,22.9725 L7.33333333,24.9975 L6,24.9975 L6,22.9725 L7.33333333,22.9725 Z M14,21.6225 L12.6666667,21.6225 L12.6666667,24.9975 L14,24.9975 L14,21.6225 Z M24.6666667,21.6225 L23.3333333,21.6225 L23.3333333,24.9975 L24.6666667,24.9975 L24.6666667,21.6225 Z M22,21.6225 L20.6666667,21.6225 L20.6666667,24.9975 L22,24.9975 L22,21.6225 Z M19.3333333,21.6225 L18,21.6225 L18,24.9975 L19.3333333,24.9975 L19.3333333,21.6225 Z M16.6666667,21.6225 L15.3333333,21.6225 L15.3333333,24.9975 L16.6666667,24.9975 L16.6666667,21.6225 L16.6666667,21.6225 Z M27.3333333,21.6225 L26,21.6225 L26,24.9975 L27.3333333,24.9975 L27.3333333,21.6225 Z M14,18.9225 L12.6666667,18.9225 L12.6666667,20.2725 L14,20.2725 L14,18.9225 L14,18.9225 Z M7.33333333,18.9225 L6,18.9225 L6,20.2725 L7.33333333,20.2725 L7.33333333,18.9225 L7.33333333,18.9225 Z M34,18.9225 L32.6666667,18.9225 L32.6666667,20.2725 L34,20.2725 L34,18.9225 L34,18.9225 Z M27.3333333,18.9225 L26,18.9225 L26,20.2725 L27.3333333,20.2725 L27.3333333,18.9225 L27.3333333,18.9225 Z M24.6666667,18.9225 L15.3333333,18.9225 L15.3333333,20.2725 L24.6666667,20.2725 L24.6666667,18.9225 L24.6666667,18.9225 Z M19.3333333,14.8725 L18,14.8725 L18,17.5725 L19.3333333,17.5725 L19.3333333,14.8725 Z M22,14.8725 L20.6666667,14.8725 L20.6666667,17.5725 L22,17.5725 L22,14.8725 Z M24.6666667,14.8725 L23.3333333,14.8725 L23.3333333,17.5725 L24.6666667,17.5725 L24.6666667,14.8725 L24.6666667,14.8725 Z M16.6666667,14.8725 L15.3333333,14.8725 L15.3333333,17.5725 L16.6666667,17.5725 L16.6666667,14.8725 L16.6666667,14.8725 Z M20,6.77925 C17.3255556,7.162875 15.3366667,9.47925 15.3333333,12.21525 L15.3333333,13.523625 L16.6666667,13.523625 L16.6666667,12.173625 L18,12.173625 L18,13.523625 L19.3333333,13.523625 L19.3333333,12.173625 L20.6666667,12.173625 L20.6666667,13.523625 L22,13.523625 L22,12.173625 L23.3333333,12.173625 L23.3333333,13.523625 L24.6666667,13.523625 L24.6666667,12.21525 C24.6633333,9.47925 22.6744444,7.164 20,6.77925 L20,6.77925 Z M20.6666667,3.398625 L19.3333333,3.398625 L19.3333333,5.423625 L20.6666667,5.423625 L20.6666667,3.398625 Z" id="Shape"></path>
            </g>
        </g>
    </g>
</svg>